<svg version="1.1" xmlns="http://www.w3.org/2000/svg" width="32" height="32" viewBox="0 0 32 32">
<title>edit</title>
<path d="M10.028 30.007l19.977-19.975c0.805-0.805 0.983-1.757 0.177-2.562l-5.38-5.38c-0.804-0.805-2.059-0.89-2.865-0.085l-20.027 19.907c-0.897 0.855-0.7 0.87-0.701 1.436l-0.015 5.86c0.002 0.876 0.702 1.592 1.577 1.594l6.243-0.167c0.438 0.002 0.675-0.286 1.014-0.628zM24.184 5.753l2.333 2.334c0.373 0.373 0.197 0.952-0.178 1.326l-1.389 1.389-3.538-3.537 1.646-1.632c0.373-0.374 0.751-0.254 1.126 0.119zM7.43 28.328l-2.543-0.094c-0.406-0.001-0.718-0.295-0.72-0.702l0.056-2.904c0-0.201 0.007-0.287 0.434-0.716l0 0.001 14.177-14.088 3.547 3.547-14.494 14.494c-0.34 0.34-0.256 0.464-0.457 0.462z"></path>
</svg>
