<svg version="1.1" xmlns="http://www.w3.org/2000/svg" width="32" height="32" viewBox="0 0 32 32">
<title>trash</title>
<path d="M1 0v32M2 0v32M3 0v32M4 0v32M5 0v32M6 0v32M7 0v32M8 0v32M9 0v32M10 0v32M11 0v32M12 0v32M13 0v32M14 0v32M15 0v32M16 0v32M17 0v32M18 0v32M19 0v32M20 0v32M21 0v32M22 0v32M23 0v32M24 0v32M25 0v32M26 0v32M27 0v32M28 0v32M29 0v32M30 0v32M31 0v32M0 1h32M0 2h32M0 3h32M0 4h32M0 5h32M0 6h32M0 7h32M0 8h32M0 9h32M0 10h32M0 11h32M0 12h32M0 13h32M0 14h32M0 15h32M0 16h32M0 17h32M0 18h32M0 19h32M0 20h32M0 21h32M0 22h32M0 23h32M0 24h32M0 25h32M0 26h32M0 27h32M0 28h32M0 29h32M0 30h32M0 31h32M27.563 11h2.501c0.517 0 0.937-0.42 0.937-0.937v-8.125c0-0.517-0.419-0.937-0.937-0.937h-28.126c-0.517 0-0.937 0.42-0.937 0.937v8.125c0 0.517 0.419 0.937 0.937 0.937h2.501v19.062c0 0.518 0.42 0.938 0.937 0.938h21.251c0.517 0 0.937-0.42 0.937-0.938v-19.062zM3.813 4.437c0-0.345 0.28-0.625 0.625-0.625h23.124c0.345 0 0.625 0.28 0.625 0.625v3.126c0 0.345-0.28 0.624-0.625 0.624h-23.124c-0.345 0-0.625-0.28-0.625-0.625v-3.126zM7.25 11.624c0-0.345 0.28-0.624 0.625-0.624h3.25v17.188h-3.25c-0.345 0-0.625-0.28-0.625-0.624v-15.939zM20.875 11h3.25c0.345 0 0.625 0.28 0.625 0.624v15.939c0 0.345-0.28 0.624-0.625 0.624h-3.25v-17.188zM13.938 11h4.125v17.188h-4.125v-17.188z"></path>
</svg>
